<svg width="20" height="22" viewBox="0 0 20 22" fill="none" xmlns="http://www.w3.org/2000/svg">
<path d="M10 0.899902C4.49054 0.899902 0 4.83248 0 9.65739C0 14.4823 4.49054 18.4149 10 18.4149V21.4234L11.7101 20.4636C14.1943 19.0682 18.7245 16.0556 19.7765 11.4895C19.9205 10.9005 20 10.2877 20 9.65739C20 4.83248 15.5095 0.899902 10 0.899902ZM10 2.84601C14.3083 2.84601 17.7778 5.88439 17.7778 9.65739C17.7778 10.148 17.7163 10.626 17.602 11.0904L17.5998 11.098L17.5977 11.1037C16.9375 13.9723 14.4129 16.0846 12.2222 17.5768V16.273L10.9722 16.4099C10.6378 16.4465 10.3155 16.4688 10 16.4688C5.69168 16.4688 2.22222 13.4304 2.22222 9.65739C2.22222 5.88439 5.69168 2.84601 10 2.84601Z" fill="#444444"/>
</svg>
