<?xml version="1.0" standalone="no"?>
<!DOCTYPE svg PUBLIC "-//W3C//DTD SVG 20010904//EN"
 "http://www.w3.org/TR/2001/REC-SVG-20010904/DTD/svg10.dtd">
<svg version="1.0" xmlns="http://www.w3.org/2000/svg"
 width="23.000000pt" height="24.000000pt" viewBox="0 0 23.000000 24.000000"
 preserveAspectRatio="xMidYMid meet">

<g transform="translate(0.000000,24.000000) scale(0.100000,-0.100000)"
fill="#000000" stroke="none">
<path d="M81 173 c-17 -20 -33 -50 -37 -66 -15 -71 80 -118 125 -61 34 43 25
81 -30 136 l-28 28 -30 -37z m49 -18 c7 -13 16 -22 20 -20 10 6 20 -20 20 -51
0 -33 -14 -30 -38 7 l-19 31 -17 -23 c-9 -13 -16 -30 -16 -39 0 -13 -1 -13
-10 0 -15 23 -12 50 11 86 25 41 31 42 49 9z m-1 -112 c-14 -16 -29 -8 -29 16
0 27 13 34 27 15 9 -13 10 -21 2 -31z"/>
</g>
</svg>
