<svg width="22" height="21" viewBox="0 0 22 21" fill="none" xmlns="http://www.w3.org/2000/svg">
<path d="M15.95 0C14.036 0 12.199 0.926976 11 2.39183C9.801 0.926976 7.964 0 6.05 0C2.662 0 0 2.76948 0 6.29428C0 10.6202 3.74 14.145 9.405 19.5008L11 21L12.595 19.4894C18.26 14.145 22 10.6202 22 6.29428C22 2.76948 19.338 0 15.95 0ZM11.11 17.7956L11 17.9101L10.89 17.7956C5.654 12.8632 2.2 9.60163 2.2 6.29428C2.2 4.00545 3.85 2.28883 6.05 2.28883C7.744 2.28883 9.394 3.4218 9.977 4.98965H12.034C12.606 3.4218 14.256 2.28883 15.95 2.28883C18.15 2.28883 19.8 4.00545 19.8 6.29428C19.8 9.60163 16.346 12.8632 11.11 17.7956Z" fill="#444444"/>
</svg>
