<?xml version="1.0" standalone="no"?>
<!DOCTYPE svg PUBLIC "-//W3C//DTD SVG 20010904//EN"
 "http://www.w3.org/TR/2001/REC-SVG-20010904/DTD/svg10.dtd">
<svg version="1.0" xmlns="http://www.w3.org/2000/svg"
 width="25.000000pt" height="24.000000pt" viewBox="0 0 25.000000 24.000000"
 preserveAspectRatio="xMidYMid meet">

<g transform="translate(0.000000,24.000000) scale(0.100000,-0.100000)"
stroke="none">
<path d="M57 182 c-33 -35 -34 -57 -3 -78 14 -8 30 -31 36 -50 14 -41 45 -47
54 -9 3 13 20 35 36 47 17 12 30 31 30 43 0 31 -38 61 -86 69 -36 5 -44 2 -67
-22z m53 -12 c0 -11 5 -20 10 -20 6 0 10 7 10 15 0 24 36 17 54 -10 20 -31 20
-37 -1 -34 -10 1 -26 -1 -36 -6 -21 -9 -86 0 -100 14 -7 7 -2 19 14 35 29 31
49 33 49 6z m5 -90 c3 -5 1 -10 -4 -10 -6 0 -11 5 -11 10 0 6 2 10 4 10 3 0 8
-4 11 -10z"/>
</g>
</svg>
