<?xml version="1.0" standalone="no"?>
<!DOCTYPE svg PUBLIC "-//W3C//DTD SVG 20010904//EN"
 "http://www.w3.org/TR/2001/REC-SVG-20010904/DTD/svg10.dtd">
<svg version="1.0" xmlns="http://www.w3.org/2000/svg"
 width="25.000000pt" height="24.000000pt" viewBox="0 0 25.000000 24.000000"
 preserveAspectRatio="xMidYMid meet">

<g transform="translate(0.000000,24.000000) scale(0.100000,-0.100000)"
stroke="none">
<path d="M155 223 c-11 -3 -24 -11 -28 -19 -4 -8 -24 -14 -44 -14 l-36 0 6
-67 c8 -100 10 -103 72 -103 62 0 64 3 72 103 l6 67 -32 0 c-19 0 -30 4 -26
10 3 6 15 10 26 10 10 0 19 5 19 10 0 11 -3 11 -35 3z m-41 -68 c-4 -8 -17
-15 -30 -15 -15 0 -24 6 -24 15 0 10 10 15 30 15 22 0 28 -4 24 -15z m76 0 c0
-10 -10 -15 -30 -15 -20 0 -30 5 -30 15 0 10 10 15 30 15 20 0 30 -5 30 -15z
m-35 -74 c-3 -6 -11 -9 -16 -6 -5 4 -9 1 -9 -4 0 -6 -9 -11 -20 -11 -11 0 -20
7 -20 15 0 8 9 15 19 15 11 0 23 5 27 11 4 7 10 7 16 1 6 -6 7 -15 3 -21z"/>
</g>
</svg>
