<?xml version="1.0" standalone="no"?>
<!DOCTYPE svg PUBLIC "-//W3C//DTD SVG 20010904//EN"
 "http://www.w3.org/TR/2001/REC-SVG-20010904/DTD/svg10.dtd">
<svg version="1.0" xmlns="http://www.w3.org/2000/svg"
 width="24.000000pt" height="24.000000pt" viewBox="0 0 24.000000 24.000000"
 preserveAspectRatio="xMidYMid meet">

<g transform="translate(0.000000,24.000000) scale(0.100000,-0.100000)"
stroke="none">
<path d="M161 194 c-6 -15 -9 -29 -6 -33 9 -8 46 39 39 50 -9 16 -20 10 -33
-17z"/>
<path d="M60 145 c-30 -11 -35 -18 -38 -48 -5 -55 23 -77 98 -77 69 0 100 21
100 68 0 39 -10 49 -55 54 -22 3 -47 7 -55 10 -8 3 -31 0 -50 -7z m55 -15 c4
-6 11 -8 16 -4 5 3 16 1 24 -6 9 -8 15 -8 20 0 7 11 25 4 25 -11 0 -5 -36 -9
-80 -9 -47 0 -80 4 -80 10 0 6 9 10 19 10 11 0 23 5 26 10 8 13 22 13 30 0z"/>
</g>
</svg>
