<svg width="23" height="18" viewBox="0 0 23 18" xmlns="http://www.w3.org/2000/svg">
<path d="M3.86963 16.0024V5.51894C3.86963 5.23422 4.10044 5 4.38516 5H17.8199C18.3722 5 18.8199 5.44772 18.8199 6V16C18.8199 16.5523 18.3722 17 17.8199 17H4.86963C4.31734 17 3.86963 16.5547 3.86963 16.0024Z" stroke="none" stroke-width="2"/>
<path d="M19.3354 9C23.0701 8.04 20.8916 7.26667 19.3354 7" stroke="none" stroke-width="2"/>
<path d="M3.86963 9C0.134946 8.04 2.31351 7.26667 3.86963 7" stroke="none" stroke-width="2"/>
<path d="M19.101 4.5H3.58862C3.17441 4.5 2.83862 4.16421 2.83862 3.75C2.83862 3.33579 3.17441 3 3.58862 3H19.101C19.5153 3 19.851 3.33579 19.851 3.75C19.851 4.16421 19.5153 4.5 19.101 4.5Z" stroke="none" stroke-width="2"/>
<path d="M6.96289 3L8.73407 1.28217C8.92066 1.1012 9.17037 1 9.43029 1H12.7439C13.0039 1 13.2536 1.1012 13.4402 1.28217L15.2113 3" stroke="none" stroke-width="2"/>
</svg>
