<?xml version="1.0" standalone="no"?>
<!DOCTYPE svg PUBLIC "-//W3C//DTD SVG 20010904//EN"
 "http://www.w3.org/TR/2001/REC-SVG-20010904/DTD/svg10.dtd">
<svg version="1.0" xmlns="http://www.w3.org/2000/svg"
 width="25.000000pt" height="24.000000pt" viewBox="0 0 25.000000 24.000000"
 preserveAspectRatio="xMidYMid meet">

<g transform="translate(0.000000,24.000000) scale(0.100000,-0.100000)"
stroke="none">
<path d="M98 209 c-10 -5 -18 -15 -18 -21 0 -6 -7 -16 -14 -22 -27 -20 -30
-62 -7 -85 29 -29 103 -29 132 0 23 23 20 65 -7 85 -7 6 -14 16 -14 22 0 11
-31 32 -47 32 -4 0 -16 -5 -25 -11z m47 -18 c3 -5 1 -13 -5 -16 -15 -9 -43 3
-35 15 8 13 32 13 40 1z m37 -48 c10 -10 -2 -13 -56 -13 -57 0 -67 2 -57 14
14 17 95 16 113 -1z"/>
<path d="M87 44 c-16 -17 -4 -24 39 -24 32 0 44 4 42 13 -5 13 -69 22 -81 11z"/>
</g>
</svg>
