<svg width="24" height="24" viewBox="0 0 24 24" fill="none" xmlns="http://www.w3.org/2000/svg">
<path d="M20.1235 3.18749C19.8634 3.19896 19.6211 3.27471 19.4078 3.36092C19.208 3.4413 18.4446 3.76872 17.2422 4.28436C16.0387 4.80046 14.4452 5.48461 12.7453 6.21561C9.3456 7.67762 5.52339 9.32332 3.56565 10.1656C3.49203 10.1973 3.23516 10.2793 2.96252 10.4922C2.68989 10.705 2.40002 11.1461 2.40002 11.6375C2.40002 12.0338 2.58888 12.4274 2.82659 12.6625C3.0643 12.8975 3.31582 13.0136 3.53127 13.1016C4.31301 13.4205 6.7375 14.4127 7.19534 14.6C7.35646 15.0936 8.23402 17.778 8.43752 18.4359C8.57168 18.8701 8.69938 19.142 8.86565 19.3578C8.94878 19.4657 9.04542 19.5603 9.16253 19.6344C9.20933 19.664 9.26066 19.6868 9.31253 19.7078L9.31565 19.7094C9.3276 19.7142 9.33791 19.7223 9.35003 19.7266C9.37289 19.7345 9.38819 19.7355 9.41878 19.7422C9.54064 19.7815 9.66366 19.8062 9.77346 19.8062C10.2416 19.8062 10.5282 19.5484 10.5282 19.5484L10.5453 19.5359L12.9532 17.4531L15.8735 20.2156C15.9146 20.2738 16.2981 20.8 17.1438 20.8C17.6459 20.8 18.0443 20.548 18.3 20.2797C18.5558 20.0113 18.7151 19.7294 18.7828 19.375V19.3734C18.8462 19.0385 21.5375 5.22186 21.5375 5.22186L21.5328 5.24061C21.6116 4.881 21.6323 4.5461 21.5453 4.21561C21.4584 3.88513 21.2293 3.5687 20.9453 3.39843C20.6614 3.22819 20.3835 3.17601 20.1235 3.18749ZM19.9735 4.85936C19.9696 4.88271 19.9763 4.87097 19.9703 4.89842L19.9688 4.9078L19.9672 4.91717C19.9672 4.91717 17.3092 18.5571 17.211 19.0766C17.2182 19.0373 17.1853 19.1153 17.1516 19.1625C17.1039 19.1297 17.0063 19.0875 17.0063 19.0875L16.9907 19.0703L13.0016 15.2969L10.1813 17.7344L11.0203 14.375C11.0203 14.375 16.2653 8.94568 16.5813 8.62967C16.8357 8.37687 16.8891 8.28875 16.8891 8.20155C16.8891 8.08475 16.8282 7.99999 16.6922 7.99999C16.5698 7.99999 16.4052 8.11899 16.3172 8.17499C15.1707 8.90582 10.1375 11.8393 7.88127 13.1516C7.52273 13.0048 5.03176 11.9852 4.18752 11.6406C4.19392 11.6378 4.19181 11.6388 4.19846 11.6359C6.15672 10.7934 9.97733 9.14772 13.3766 7.68592C15.0762 6.95503 16.671 6.27035 17.8735 5.75467C19.0575 5.24694 19.8801 4.8975 19.9735 4.85936Z" fill="#444444"/>
</svg>
