<?xml version="1.0" standalone="no"?>
<!DOCTYPE svg PUBLIC "-//W3C//DTD SVG 20010904//EN"
 "http://www.w3.org/TR/2001/REC-SVG-20010904/DTD/svg10.dtd">
<svg version="1.0" xmlns="http://www.w3.org/2000/svg"
 width="24.000000pt" height="24.000000pt" viewBox="0 0 24.000000 24.000000"
 preserveAspectRatio="xMidYMid meet">

<g transform="translate(0.000000,24.000000) scale(0.100000,-0.100000)"
fill="#000000" stroke="none">
<path d="M59 181 c-20 -20 -29 -39 -29 -61 0 -44 47 -90 93 -90 80 0 119 101
61 155 -38 35 -87 34 -125 -4z m101 4 c53 -28 49 -108 -7 -134 -50 -23 -103
12 -103 69 0 36 17 61 50 73 24 9 29 8 60 -8z"/>
<path d="M118 174 c-15 -14 -8 -50 13 -73 24 -26 40 -20 16 6 -8 10 -17 31
-19 46 -1 16 -6 25 -10 21z"/>
</g>
</svg>
